<svg xmlns="http://www.w3.org/2000/svg" version="1.1" xmlns:xlink="http://www.w3.org/1999/xlink" width="300" height="300"><svg id="SvgjsSvg1032" xmlns="http://www.w3.org/2000/svg" xmlns:xlink="http://www.w3.org/1999/xlink" viewBox="0 0 300 300" shape-rendering="geometricPrecision" text-rendering="geometricPrecision" project-id="08d3164f901544bc9d0f973f67263f71" export-id="a9d4ecd4619e46c293a694930c3da2c3" cached="false"><path id="SvgjsPath1031" d="M148.96492,146.13702l2.06989,7.72603l22.86282-6.12607c1.09889,11.45764-6.19835,22.36792-17.68578,25.44597h-.00001c-.00032.00009-.00064.00017-.00096.00026c0,0,0,0,0,0v0c-11.48712,3.07747-23.26134-2.72246-28.03836-13.19422l22.86222-6.12591c-1.16773-4.3585-2.06994-7.72602-2.06982-7.72605v-.00001Zm-5.17677-19.31997c.00032-.00009.00064-.00017.00096-.00026c0,0,0,0,0,0v0c11.48712-3.07747,23.26134,2.72246,28.03836,13.19422l-22.86222,6.12591c1.16773,4.3585,2.06994,7.72602,2.06982,7.72605l-2.06989-7.72603-22.86282,6.12607c-1.09889-11.45764,6.19835-22.36792,17.68578-25.44597l.00001.00001Z" transform="matrix(6.248279 0 0 6.248288-787.241825-787.24325)" fill="#c2081c"></path></svg><style>@media (prefers-color-scheme: light) { :root { filter: none; } }
@media (prefers-color-scheme: dark) { :root { filter: none; } }
</style></svg>