<?xml version="1.0" encoding="UTF-8"?>
<svg id="Livello_1" data-name="Livello 1" xmlns="http://www.w3.org/2000/svg" viewBox="0 0 3884.75 581.03">
  <defs>
    <style>
      .cls-1 {
        stroke-width: 0px;
      }
    </style>
  </defs>
  <g>
    <path class="cls-1" d="M694.87,547.5V33.52c0-18.52,15.01-33.52,33.52-33.52h50.59c18.52,0,33.52,15.01,33.52,33.52v513.98c0,18.52-15.01,33.52-33.52,33.52h-50.59c-18.52,0-33.52-15.01-33.52-33.52Z"/>
    <path class="cls-1" d="M901.45,547.5V33.52c0-18.52,15.01-33.52,33.52-33.52h108.51c49.25,0,87.63,6.34,115.13,19.01,27.49,12.68,46.98,32.53,58.46,59.54,11.48,27.02,17.22,61.58,17.22,103.65v211.61c0,43.04-5.74,78.43-17.22,106.16-11.48,27.74-30.74,48.19-57.74,61.33-27.02,13.16-64.69,19.73-112.98,19.73h-111.38c-18.52,0-33.52-15.01-33.52-33.52ZM1019.81,475.14c0,12.92,10.48,23.4,23.4,23.4h1.7c21.99,0,37.66-3.46,46.99-10.41,9.32-6.93,15.18-17.22,17.57-30.84,2.39-13.63,3.59-30.49,3.59-50.56v-239.59c0-20.08-1.56-36.22-4.66-48.42-3.11-12.2-9.32-21.16-18.65-26.9-9.32-5.74-24.52-8.61-45.55-8.61h0c-13.47,0-24.38,10.92-24.38,24.38v367.55Z"/>
    <path class="cls-1" d="M1312.47,547.5V33.52c0-18.52,15.01-33.52,33.52-33.52h108.51c49.24,0,87.62,6.34,115.12,19.01,27.5,12.68,46.99,32.53,58.47,59.54,11.47,27.02,17.21,61.58,17.21,103.65v211.61c0,43.04-5.74,78.43-17.21,106.16-11.48,27.74-30.74,48.19-57.75,61.33-27.02,13.16-64.68,19.73-112.98,19.73h-111.37c-18.52,0-33.52-15.01-33.52-33.52ZM1430.83,475.14c0,12.92,10.48,23.4,23.4,23.4h1.71c21.98,0,37.66-3.46,46.99-10.41,9.32-6.93,15.18-17.22,17.57-30.84,2.39-13.63,3.59-30.49,3.59-50.56v-239.59c0-20.08-1.57-36.22-4.67-48.42-3.11-12.2-9.32-21.16-18.65-26.9-9.32-5.74-24.51-8.61-45.54-8.61h-.99c-12.92,0-23.4,10.48-23.4,23.4v368.53Z"/>
    <path class="cls-1" d="M1723.49,547.5V33.52c0-18.52,15.01-33.52,33.52-33.52h51.31c18.52,0,33.52,15.01,33.52,33.52v433.63c0,18.52,15.01,33.52,33.52,33.52h69.24c18.52,0,33.52,15.01,33.52,33.52v13.29c0,18.52-15.01,33.52-33.52,33.52h-187.6c-18.52,0-33.52-15.01-33.52-33.52Z"/>
    <path class="cls-1" d="M2029.79,547.5V33.52c0-18.52,15.01-33.52,33.52-33.52h186.16c18.52,0,33.52,15.01,33.52,33.52v14.73c0,18.52-15.01,33.52-33.52,33.52h-67.8c-18.52,0-33.52,15.01-33.52,33.52v87.17c0,18.52,15.01,33.52,33.52,33.52h36.96c18.52,0,33.52,15.01,33.52,33.52v15.44c0,18.52-15.01,33.52-33.52,33.52h-36.96c-18.52,0-33.52,15.01-33.52,33.52v115.15c0,18.52,15.01,33.52,33.52,33.52h69.24c18.52,0,33.52,15.01,33.52,33.52v13.29c0,18.52-15.01,33.52-33.52,33.52h-187.59c-18.52,0-33.52-15.01-33.52-33.52Z"/>
    <path class="cls-1" d="M2393.68,560.63l-69.25-534.23c-1.81-14,9.09-26.41,23.2-26.41h52.89c11.91,0,21.91,8.94,23.25,20.77l17.33,153.22c3.09,27.27,42.51,27.87,46.41.7l22.12-153.9c1.66-11.52,11.52-20.07,23.16-20.07h39.19c11.58,0,21.42,8.47,23.14,19.93l23.72,158.01c4.06,27.06,43.31,26.35,46.39-.84l17.8-157.05c1.34-11.83,11.35-20.76,23.25-20.76h51.5c14.11,0,25,12.39,23.21,26.38l-68.59,534.23c-1.5,11.67-11.44,20.42-23.21,20.42h-59.77c-11.55,0-21.37-8.42-23.13-19.84l-29.88-194.06c-4.09-26.55-42.39-26.41-46.28.18l-28.32,193.71c-1.68,11.49-11.54,20.01-23.15,20.01h-61.79c-11.76,0-21.69-8.73-23.2-20.39Z"/>
    <path class="cls-1" d="M2811.49,541.12l99.62-513.98c3.06-15.76,16.86-27.15,32.91-27.15h75.94c16.07,0,29.88,11.4,32.92,27.19l98.98,513.98c3.98,20.68-11.86,39.86-32.92,39.86h-40.64c-16.43,0-30.45-11.91-33.09-28.13l-11.64-71.42c-2.64-16.22-16.65-28.13-33.09-28.13h-35.12c-16.3,0-30.23,11.72-33.03,27.77l-12.56,72.14c-2.8,16.05-16.73,27.77-33.03,27.77h-42.35c-21.07,0-36.92-19.21-32.91-39.9ZM2975.03,380.9h15.32c14.31,0,25.26-12.72,23.14-26.87l-7.74-51.64c-3.99-26.62-42.39-26.56-46.3.07l-7.58,51.64c-2.07,14.13,8.88,26.8,23.15,26.8Z"/>
    <path class="cls-1" d="M3214.06,547.5V33.52c0-18.52,15.01-33.52,33.52-33.52h117.11c39.2,0,72.81,4.43,100.78,13.27,27.97,8.85,49.49,24.51,64.56,46.99,15.06,22.48,22.59,53.56,22.59,93.25,0,23.92-2.04,45.08-6.09,63.49-4.07,18.42-11.25,34.43-21.52,48.06-7.33,9.71-16.78,18.03-28.36,24.95-8.83,5.28-12.64,16.15-9.84,26.05l63.03,222.31c6.07,21.4-10.01,42.67-32.25,42.67h-50.79c-15.34,0-28.73-10.42-32.5-25.29l-55.83-220.32c-2.63-10.38-11.97-17.65-22.68-17.65h0c-12.92,0-23.4,10.48-23.4,23.4v206.33c0,18.52-15.01,33.52-33.52,33.52h-51.3c-18.52,0-33.52-15.01-33.52-33.52ZM3332.42,213.95c0,18.52,15.01,33.52,33.52,33.52h.91c19.12,0,34.19-3.1,45.2-9.32,10.99-6.21,18.76-15.66,23.31-28.34,4.54-12.66,6.82-28.33,6.82-46.99,0-26.77-4.91-47.22-14.71-61.33-9.81-14.09-28.1-21.16-54.87-21.16h-6.65c-18.52,0-33.52,15.01-33.52,33.52v100.09Z"/>
    <path class="cls-1" d="M3630.1,547.5V33.52c0-18.52,15.01-33.52,33.52-33.52h186.16c18.52,0,33.52,15.01,33.52,33.52v14.73c0,18.52-15.01,33.52-33.52,33.52h-67.8c-18.52,0-33.52,15.01-33.52,33.52v87.17c0,18.52,15.01,33.52,33.52,33.52h36.96c18.52,0,33.52,15.01,33.52,33.52v15.44c0,18.52-15.01,33.52-33.52,33.52h-36.96c-18.52,0-33.52,15.01-33.52,33.52v115.15c0,18.52,15.01,33.52,33.52,33.52h69.25c18.52,0,33.52,15.01,33.52,33.52v13.29c0,18.52-15.01,33.52-33.52,33.52h-187.6c-18.52,0-33.52-15.01-33.52-33.52Z"/>
  </g>
  <path class="cls-1" d="M464.82,147.04c1.17-4.54,3.05-8.78,5.52-12.6,7.68-11.88,21.59-18.23,35.73-18.23h45.76c16.14,0,29.2-13.08,29.2-29.22V29.22C581.02,13.08,567.94,0,551.8,0h-57.76C477.9,0,464.82,13.08,464.82,29.22v50.02c0,9.29-3.68,18.21-10.24,24.79-7.76,7.79-18.3,12.17-29.29,12.17h-47.45c-16.14,0-29.22,13.08-29.22,29.22v50.02c0,9.35-3.72,18.31-10.34,24.91-7.75,7.72-18.24,12.06-29.18,12.06h-37.15c-10.94,0-21.43-4.34-29.18-12.06-6.62-6.6-10.34-15.56-10.34-24.91v-50.02c0-16.14-13.08-29.22-29.22-29.22h-47.45c-11,0-21.54-4.38-29.29-12.17-6.56-6.59-10.24-15.5-10.24-24.79V29.22C116.2,13.08,103.12,0,86.98,0H29.22C13.08,0,0,13.08,0,29.22v57.76c0,16.14,13.06,29.22,29.2,29.22h45.76c14.14,0,28.05,6.36,35.73,18.23,2.47,3.82,4.35,8.06,5.52,12.6h0s0,45.58,0,45.58c0,10.39-3.53,20.7-10.78,28.16-.29.29-.58.58-.87.87-7.45,7.24-17.76,10.77-28.14,10.77H29.22c-16.14,0-29.22,13.08-29.22,29.22v290.17c0,16.14,13.08,29.22,29.22,29.22h57.76c16.14,0,29.22-13.08,29.22-29.22v-281.13c0-10.14,4.02-19.86,11.18-27.03,7.17-7.19,16.9-11.23,27.06-11.23h38.45c10.96,0,21.48,4.35,29.23,12.11,6.59,6.59,10.29,15.53,10.29,24.86v50.02c0,16.14,13.08,29.22,29.22,29.22h57.76c16.14,0,29.22-13.08,29.22-29.22v-50.02c0-9.32,3.7-18.27,10.29-24.86,7.75-7.75,18.27-12.11,29.23-12.11h38.45c10.15,0,19.89,4.04,27.06,11.23,7.16,7.18,11.18,16.9,11.18,27.03v281.13c0,16.14,13.08,29.22,29.22,29.22h57.76c16.14,0,29.22-13.08,29.22-29.22v-290.17c0-16.14-13.08-29.22-29.22-29.22h-47.2c-10.39,0-20.69-3.53-28.14-10.77-.29-.29-.58-.58-.87-.87-7.24-7.45-10.78-17.76-10.78-28.16v-45.58s0,0,0,0Z"/>
</svg>