<?xml version="1.0" encoding="UTF-8"?>
<svg id="Livello_1" data-name="Livello 1" xmlns="http://www.w3.org/2000/svg" viewBox="0 0 581.02 581.02">
  <defs>
    <style>
      .cls-1 {
        stroke-width: 0px;
      }
    </style>
  </defs>
  <path class="cls-1" d="M464.82,147.04c1.17-4.54,3.05-8.78,5.52-12.6,7.68-11.88,21.59-18.23,35.73-18.23h45.76c16.14,0,29.2-13.08,29.2-29.22V29.22c0-16.14-13.08-29.22-29.22-29.22h-57.76c-16.14,0-29.22,13.08-29.22,29.22v50.02c0,9.29-3.68,18.21-10.24,24.79-7.76,7.79-18.3,12.17-29.29,12.17h-47.45c-16.14,0-29.22,13.08-29.22,29.22v50.02c0,9.35-3.72,18.31-10.34,24.91-7.75,7.72-18.24,12.06-29.18,12.06h-37.15c-10.94,0-21.43-4.34-29.18-12.06-6.62-6.6-10.34-15.56-10.34-24.91v-50.02c0-16.14-13.08-29.22-29.22-29.22h-47.45c-11,0-21.54-4.38-29.29-12.17-6.56-6.59-10.24-15.5-10.24-24.79V29.22c0-16.14-13.08-29.22-29.22-29.22H29.22C13.08,0,0,13.08,0,29.22v57.76c0,16.14,13.06,29.22,29.2,29.22h45.76c14.14,0,28.05,6.36,35.73,18.23,2.47,3.82,4.35,8.06,5.52,12.6h0s0,45.58,0,45.58c0,10.39-3.53,20.7-10.78,28.16-.29.29-.58.58-.87.87-7.45,7.24-17.76,10.77-28.14,10.77H29.22c-16.14,0-29.22,13.08-29.22,29.22v290.17c0,16.14,13.08,29.22,29.22,29.22h57.76c16.14,0,29.22-13.08,29.22-29.22v-281.13c0-10.14,4.02-19.86,11.18-27.03,7.17-7.19,16.9-11.23,27.06-11.23h38.45c10.96,0,21.48,4.35,29.23,12.11,6.59,6.59,10.29,15.53,10.29,24.86v50.02c0,16.14,13.08,29.22,29.22,29.22h57.76c16.14,0,29.22-13.08,29.22-29.22v-50.02c0-9.32,3.7-18.27,10.29-24.86,7.75-7.75,18.27-12.11,29.23-12.11h38.45c10.15,0,19.89,4.04,27.06,11.23,7.16,7.18,11.18,16.9,11.18,27.03v281.13c0,16.14,13.08,29.22,29.22,29.22h57.76c16.14,0,29.22-13.08,29.22-29.22v-290.17c0-16.14-13.08-29.22-29.22-29.22h-47.2c-10.39,0-20.69-3.53-28.14-10.77-.29-.29-.58-.58-.87-.87-7.24-7.45-10.78-17.76-10.78-28.16v-45.58s0,0,0,0Z"/>
</svg>